<svg xmlns="http://www.w3.org/2000/svg" version="1.1" xmlns:xlink="http://www.w3.org/1999/xlink" xmlns:svgjs="http://svgjs.com/svgjs" width="1440" height="560" preserveAspectRatio="none" viewBox="0 0 1440 560"><g mask="url(&quot;#SvgjsMask1001&quot;)" fill="none"><rect width="1440" height="560" x="0" y="0" fill="rgba(247, 197, 159, 1)"></rect><path d="M0,484.061C101.341,485.387,204.15,502.7,297.094,462.287C398.863,418.037,515.665,355.529,542.976,247.969C570.583,139.242,467.842,43.815,430.179,-61.85C401.273,-142.947,403.368,-235.602,347.318,-300.953C291.145,-366.446,201.777,-383.985,123.241,-419.719C30.424,-461.951,-54.829,-545.677,-155.552,-529.761C-257.401,-513.667,-324.392,-417.508,-390.665,-338.513C-456.028,-260.602,-511.825,-175.905,-535.41,-76.98C-560.55,28.466,-574.077,143.002,-528.967,241.571C-483.87,340.112,-390.652,409.419,-292.14,454.579C-201.329,496.209,-99.889,482.754,0,484.061" fill="#f19854"></path><path d="M1440 1044.959C1529.99 1043.103 1564.259 919.7529999999999 1641.472 873.496 1722.593 824.898 1840.15 843.5219999999999 1899.341 769.774 1960.737 693.278 1964.923 583.615 1952.19 486.358 1939.364 388.39099999999996 1903.954 286.944 1827.874 223.90499999999997 1755.086 163.594 1650.417 177.43599999999998 1557.621 159.421 1474.693 143.322 1395.692 112.99200000000002 1311.902 123.73899999999998 1218.02 135.77999999999997 1103.894 144.74200000000002 1052.476 224.209 1000.3430000000001 304.781 1065.872 410.06100000000004 1064.5520000000001 506.019 1063.452 585.958 1012.664 667.271 1045.376 740.219 1078.12 813.238 1169.778 833.0070000000001 1233.116 881.918 1304.046 936.693 1350.401 1046.807 1440 1044.959" fill="#fdf2ea"></path></g><defs><mask id="SvgjsMask1001"><rect width="1440" height="560" fill="#ffffff"></rect></mask></defs></svg>