<svg xmlns="http://www.w3.org/2000/svg" version="1.1" xmlns:xlink="http://www.w3.org/1999/xlink" xmlns:svgjs="http://svgjs.com/svgjs" width="1440" height="900" preserveAspectRatio="none" viewBox="0 0 1440 900"><g mask="url(&quot;#SvgjsMask1022&quot;)" fill="none"><path d="M586.18 0C640.94 22.82 625.31 93.75 675 93.75C740.03 93.75 740.59 31.27 815.63 0C853.09 -15.61 857.82 0 900 0C1012.5 0 1012.5 0 1125 0C1237.5 0 1237.5 0 1350 0C1462.5 0 1511.32 -48.82 1575 0C1623.82 37.43 1623.37 144.18 1575 172.5C1510.87 210.04 1454.57 116.33 1350 131.71C1276.12 142.58 1218.1 170.93 1218.1 225C1218.1 291.13 1270.97 362.94 1350 372.12C1449.42 383.67 1510.29 244.05 1575 266.45C1622.79 282.99 1575 358.23 1575 450C1575 562.5 1575 562.5 1575 675C1575 787.5 1631.25 843.75 1575 900C1518.75 956.25 1462.5 900 1350 900C1237.5 900 1237.5 900 1125 900C1012.5 900 1012.5 900 900 900C787.5 900 787.5 900 675 900C663.75 900 663.62 901.59 652.5 900C551.12 885.52 549.47 867.86 450 867.86C407.72 867.86 411.41 893.94 369 900C298.91 910.01 297 900 225 900C112.5 900 68.75 943.75 0 900C-43.75 872.16 -43.03 774.03 0 756.82C69.47 729.03 136.17 834.7 225 810C283.29 793.79 294.23 745.14 294.23 675C294.23 573.79 288.2 472.4 225 467.31C141.09 460.56 66.46 656.43 0 651.32C-46.04 647.78 0 550.66 0 450C0 337.5 0 337.5 0 225C0 112.5 -56.25 56.25 0 0C56.25 -56.25 112.5 0 225 0C337.5 0 337.5 0 450 0C518.09 0 528.44 -24.06 586.18 0" stroke="rgba(253, 134, 2, 1)" stroke-width="2"></path><path d="M450 258.33C371.8 258.33 243 376.93 243 450C243 506.37 355.45 517.21 450 517.21C489.39 517.21 510.88 490.23 510.88 450C510.88 360.79 505.74 258.33 450 258.33" stroke="rgba(253, 134, 2, 1)" stroke-width="2"></path><path d="M900 344.12C876.27 344.12 853.85 397.67 853.85 450C853.85 496.76 876.3 542.31 900 542.31C924.03 542.31 949.32 496.83 949.32 450C949.32 397.74 924 344.12 900 344.12" stroke="rgba(0, 85, 255, 0.58)" stroke-width="2"></path><path d="M207 225C109.48 113.09 7.99 65.67 13.24 0C16.99 -46.83 119.12 0 225 0C330.88 0 432.68 -46.93 436.76 0C442.46 65.57 341.72 113.52 244.57 225C235.84 235.02 234.6 243 225 243C215.81 243 215.36 234.59 207 225" stroke="rgba(253, 134, 2, 1)" stroke-width="2"></path><path d="M1575 78.75C1495.12 78.75 1360.23 20.31 1360.23 0C1360.23 -19.07 1496.43 -28.81 1575 0C1603.81 10.56 1602.5 78.75 1575 78.75" stroke="rgba(0, 85, 255, 0.58)" stroke-width="2"></path><path d="M0 386.72C18.53 386.72 63.28 419.71 63.28 450C63.28 478 19.24 503.29 0 503.29C-12.4 503.29 0 476.64 0 450C0 418.36 -13.11 386.72 0 386.72" stroke="rgba(253, 134, 2, 1)" stroke-width="2"></path><path d="M577.06 450C638.22 356.68 624.28 246.95 675 246.95C726.61 246.95 731.69 346.86 781.73 450C835.53 560.88 909.95 588.81 882.69 675C856.58 757.56 785.76 760.99 675 787.5C569.41 812.77 546.98 813.92 450 778.57C392.66 757.67 366.35 724.7 366.35 675C366.35 630.55 409.31 633.71 450 590.26C514.67 521.21 525.72 528.34 577.06 450" stroke="rgba(253, 134, 2, 1)" stroke-width="2"></path><path d="M1026.37 450C1072.26 368.06 1067.63 290 1125 290C1191.94 290 1197.44 372.68 1275 450C1309.94 484.83 1313.29 514.29 1350 514.29C1384.75 514.29 1381.01 478.52 1417.92 450C1493.51 391.6 1525.04 340.46 1575 340.46C1603.58 340.46 1575 395.23 1575 450C1575 562.5 1575 562.5 1575 675C1575 787.5 1631.25 843.75 1575 900C1518.75 956.25 1462.5 900 1350 900C1237.5 900 1237.5 900 1125 900C1046.74 900 1011.84 945.25 968.48 900C904.03 832.75 895.53 782.65 909.38 675C924.48 557.65 964.45 560.56 1026.37 450" stroke="rgba(253, 134, 2, 1)" stroke-width="2"></path><path d="M225 52.5C201.84 52.5 178.68 15.8 178.68 0C178.68 -10.45 201.84 0 225 0C248.16 0 271.32 -10.45 271.32 0C271.32 15.8 248.16 52.5 225 52.5" stroke="rgba(0, 85, 255, 0.58)" stroke-width="2"></path><path d="M643.24 450C643.24 414.69 658.55 384.15 675 384.15C691.74 384.15 709.62 414.29 709.62 450C709.62 551.06 691.61 657.69 675 657.69C658.42 657.69 643.24 551.46 643.24 450" stroke="rgba(0, 85, 255, 0.58)" stroke-width="2"></path><path d="M1103.42 450C1110.68 430.83 1112.45 415 1125 415C1139.64 415 1139.89 434.09 1157.81 450C1252.39 533.95 1255.93 614.73 1350 614.73C1439.06 614.73 1434.71 529.52 1524.06 450C1547.21 429.39 1558.8 414.47 1575 414.47C1584.27 414.47 1575 432.24 1575 450C1575 562.5 1575 562.5 1575 675C1575 787.5 1631.25 843.75 1575 900C1518.75 956.25 1462.5 900 1350 900C1288.13 900 1282.97 917.02 1226.25 900C1170.47 883.27 1164.52 877.03 1125 832.5C1064.68 764.53 1031.29 758.88 1026.56 675C1020.5 567.63 1061.46 560.83 1103.42 450" stroke="rgba(0, 85, 255, 0.58)" stroke-width="2"></path><path d="M438.46 675C438.46 668.87 442.01 663.31 450 663.31C537.78 663.31 630 668.51 630 675C630 681.5 536.93 689.29 450 689.29C441.16 689.29 438.46 681.86 438.46 675" stroke="rgba(253, 134, 2, 1)" stroke-width="2"></path></g><defs><mask id="SvgjsMask1022"><rect width="1440" height="900" fill="#ffffff"></rect></mask></defs></svg>