<svg xmlns="http://www.w3.org/2000/svg" version="1.1" xmlns:xlink="http://www.w3.org/1999/xlink" xmlns:svgjs="http://svgjs.com/svgjs" width="1440" height="900" preserveAspectRatio="none" viewBox="0 0 1440 900"><g mask="url(&quot;#SvgjsMask1023&quot;)" fill="none"><path d="M450 90C396.45 145.16 418.39 164.83 368.53 225C305.89 300.57 294.27 290.85 225 361.48C183.93 403.35 147.86 399.68 147.86 450C147.86 533.94 159.36 616.9 225 630C310.43 647.05 334.27 562.78 450 510.31C532.8 472.78 553.85 500.38 622.06 450C666.35 417.29 655.25 399.47 675 344.12C695.4 286.97 697.04 285.56 702.36 225C712.15 113.5 652.25 60.3 705.22 0C751.07 -52.2 802.61 0 900 0C1012.5 0 1012.5 0 1125 0C1237.5 0 1237.5 0 1350 0C1462.5 0 1476.56 -14.06 1575 0C1589.06 2.01 1582.31 18.12 1575 32.14C1523.62 130.62 1457.61 143.28 1457.61 225C1457.61 274.33 1547.61 241.73 1575 294.23C1606.31 354.23 1575 372.12 1575 450C1575 562.5 1575 562.5 1575 675C1575 748.56 1619.32 788.35 1575 822.12C1506.82 874.07 1462.81 838.85 1350 846.43C1237.81 853.97 1229.91 831.74 1125 852.35C1093.59 858.52 1108.33 893.44 1077.35 900C995.83 917.26 988.67 900 900 900C810.27 900 802.33 918.06 720.54 900C689.83 893.22 706.07 853.51 675 850.32C570.8 839.62 559.94 852.61 450 872.22C420.65 877.45 425.72 896.38 396.43 900C313.22 910.27 310.72 900 225 900C127.7 900 125.53 907.8 30.41 900C13.03 898.58 2.23 898.08 0 881.56C-12.97 785.58 0 778.28 0 675C0 562.5 0 562.5 0 450C0 337.5 0 337.5 0 225C0 112.5 -56.25 56.25 0 0C56.25 -56.25 112.5 0 225 0C337.5 0 337.5 0 450 0C518.48 0 586.96 -20.49 586.96 0C586.96 24.51 505.66 32.66 450 90" stroke="rgba(253, 134, 2, 1)" stroke-width="2"></path><path d="M399.49 0C413.39 67.2 341.45 117.14 271.55 225C254.2 251.77 246.56 245.49 225 269.26C144.53 357.99 89.03 347.82 67.5 450C46.28 550.69 158.64 578.79 139.5 675C124.89 748.46 42.69 789.34 0 789.34C-27.06 789.34 0 732.17 0 675C0 562.5 0 562.5 0 450C0 337.5 0 337.5 0 225C0 112.5 -56.25 56.25 0 0C56.25 -56.25 112.5 0 225 0C312.25 0 390.12 -45.3 399.49 0" stroke="rgba(0, 85, 255, 0.58)" stroke-width="2"></path><path d="M778.38 225C747.9 125.05 748.42 75.4 789.18 0C809.23 -37.1 844.59 0 900 0C1012.5 0 1012.5 0 1125 0C1237.5 0 1237.5 0 1350 0C1373.28 0 1396.55 -12.22 1396.55 0C1396.55 21.53 1375.4 35.36 1350 67.5C1286.5 147.86 1218.75 159.98 1218.75 225C1218.75 271.54 1287.16 252.98 1350 290.63C1465.29 359.71 1467.12 362.05 1575 438.46C1579.62 441.74 1575 444.23 1575 450C1575 472.5 1580.58 473.38 1575 495C1551.55 585.88 1573.65 608.93 1516.94 675C1461.15 740 1438.3 732.09 1350 757.14C1242.33 787.68 1224.1 744.4 1125 786.18C1054.69 815.83 1077.72 866.34 1011.18 900C965.22 923.25 955.59 900 900 900C843.75 900 832.86 924.74 787.5 900C720.36 863.38 746.5 797.87 675 777.27C577.75 749.26 551.03 829.67 450 802.78C358.91 778.54 290.77 735.47 290.77 675C290.77 618.23 362.55 602.77 450 568.3C554.66 527.05 562.84 521.89 675 523.56C787.84 525.24 803.73 596.64 900 575C967.36 559.86 1002.27 507.81 1002.27 450C1002.27 402.04 947.12 410.82 900 363.46C835.18 298.32 803.31 306.78 778.38 225" stroke="rgba(253, 134, 2, 1)" stroke-width="2"></path><path d="M182.43 900C182.43 880.77 204.6 839.42 225 839.42C244.63 839.42 262.5 880.16 262.5 900C262.5 910.45 243.75 900 225 900C203.72 900 182.43 911.06 182.43 900" stroke="rgba(253, 134, 2, 1)" stroke-width="2"></path><path d="M225 112.5C143.67 112.5 30 30.14 30 0C30 -26.11 127.5 0 225 0C254.85 0 284.69 -17.95 284.69 0C284.69 38.3 271.01 112.5 225 112.5" stroke="rgba(0, 85, 255, 0.58)" stroke-width="2"></path><path d="M854.39 225C844.1 118.99 852.75 100.54 873.13 0C875.56 -11.96 886.57 0 900 0C1012.5 0 1012.5 0 1125 0C1135.72 0 1146.43 -5.11 1146.43 0C1146.43 8.12 1133.7 11.86 1125 26.47C1066.73 124.36 1085.41 143.84 1012.5 225C972.91 269.07 950.75 276.92 900 276.92C871.69 276.92 857.54 257.45 854.39 225" stroke="rgba(0, 85, 255, 0.58)" stroke-width="2"></path><path d="M1104.55 450C1120.21 424.66 1099.25 398.18 1125 393.75C1221.98 377.08 1242.22 386.78 1350 407.81C1386.36 414.9 1413.28 418.21 1413.28 450C1413.28 531.35 1384.98 543.57 1350 634.09C1341.5 656.07 1347.29 666.99 1326.32 675C1234.79 709.95 1225.28 720 1125 720C1037.69 720 955.2 728.65 951.14 675C944.98 593.65 1033.28 565.29 1104.55 450" stroke="rgba(253, 134, 2, 1)" stroke-width="2"></path><path d="M0 540C6.82 540 27 612.33 27 675C27 690.89 8.26 697.13 0 697.13C-5.24 697.13 0 686.07 0 675C0 607.5 -6.68 540 0 540" stroke="rgba(253, 134, 2, 1)" stroke-width="2"></path><path d="M377.31 675C377.31 649.08 408.33 632.35 450 626.29C557.18 610.71 564.29 617.35 675 631.73C751.79 641.7 825 656.68 825 675C825 692.93 750.46 692.48 675 704.22C562.96 721.65 555.5 743.69 450 733.33C406.66 729.08 377.31 702.6 377.31 675" stroke="rgba(253, 134, 2, 1)" stroke-width="2"></path><path d="M854.46 900C854.46 830.64 877.36 726.14 900 726.14C922.63 726.14 945 830.49 945 900C945 917.42 922.5 900 900 900C877.23 900 854.46 917.57 854.46 900" stroke="rgba(0, 85, 255, 0.58)" stroke-width="2"></path></g><defs><mask id="SvgjsMask1023"><rect width="1440" height="900" fill="#ffffff"></rect></mask></defs></svg>