<svg xmlns="http://www.w3.org/2000/svg" version="1.1" xmlns:xlink="http://www.w3.org/1999/xlink" xmlns:svgjs="http://svgjs.com/svgjs" width="1440" height="560" preserveAspectRatio="none" viewBox="0 0 1440 560"><g mask="url(&quot;#SvgjsMask1011&quot;)" fill="none"><path d="M12.86,315.069C29.816,314.377,44.756,303.76,52.26,288.539C59.007,274.855,54.101,259.593,46.824,246.183C39.074,231.902,29.052,217.29,12.86,215.937C-5.376,214.413,-23.218,223.833,-32.597,239.547C-42.202,255.64,-42.203,275.945,-32.538,292.002C-23.156,307.589,-5.318,315.811,12.86,315.069" fill="rgba(255, 107, 53, 0.54)" class="triangle-float3"></path><path d="M851.327,580.726C912.35,581.346,968.951,546.866,998.016,493.206C1025.822,441.87,1017.782,379.796,987.046,330.158C957.985,283.226,906.525,256.883,851.327,256.309C795.029,255.723,739.779,279.116,710.625,327.281C680.471,377.1,681.444,439.365,709.709,490.279C738.848,542.767,791.296,580.116,851.327,580.726" fill="rgba(255, 107, 53, 0.54)" class="triangle-float3"></path><path d="M978.431,187.59C1003.106,188.312,1028.837,179.258,1040.679,157.598C1052.167,136.584,1042.626,112.244,1031.102,91.25C1018.96,69.131,1003.663,44.229,978.431,44.201C953.173,44.173,937.059,68.645,925.555,91.131C915.289,111.197,911.354,134.365,922.189,154.13C933.427,174.632,955.061,186.906,978.431,187.59" fill="rgba(255, 107, 53, 0.54)" class="triangle-float2"></path><path d="M163.521,701.249C212.805,702.74,269.668,698.822,293.853,655.854C317.791,613.325,289.651,564.118,264.118,522.527C240.213,483.588,209.211,443.898,163.521,443.557C117.415,443.213,83.211,481,60.288,521.005C37.529,560.725,23.417,608.636,46.169,648.36C69.024,688.265,117.555,699.858,163.521,701.249" fill="rgba(255, 107, 53, 0.54)" class="triangle-float1"></path><path d="M1353.157,302.227C1407.454,302.543,1464.678,291.14,1494.18,245.556C1525.979,196.424,1523.347,133.416,1495.852,81.752C1466.492,26.582,1415.629,-17.695,1353.157,-19.434C1287.971,-21.249,1226.306,15.661,1196.004,73.404C1167.52,127.682,1180.246,193.403,1214.949,243.932C1245.288,288.107,1299.568,301.915,1353.157,302.227" fill="rgba(255, 107, 53, 0.54)" class="triangle-float3"></path><path d="M520.57,140.349C559.01,142.259,599.658,132.843,620.704,100.62C643.537,65.66,645.645,18.74,622.84,-16.238C601.637,-48.759,559.293,-55.739,520.57,-52.966C487.089,-50.568,457.789,-32.199,440.873,-3.206C423.809,26.04,419.868,61.855,436.303,91.459C453.197,121.89,485.807,138.622,520.57,140.349" fill="rgba(255, 107, 53, 0.54)" class="triangle-float2"></path><path d="M1034.576,579.836C1058.512,579.283,1075.905,560.35,1088.423,539.941C1101.744,518.224,1113.468,492.677,1101.99,469.932C1089.636,445.45,1061.998,433.38,1034.576,433.233C1006.879,433.085,978.941,444.768,965.9,469.203C953.443,492.544,962.289,520.054,976.242,542.532C989.289,563.55,1009.845,580.407,1034.576,579.836" fill="rgba(255, 107, 53, 0.54)" class="triangle-float3"></path><path d="M899.576,510.144C922.971,509.903,947.297,501.898,958.359,481.282C968.987,461.474,960.435,438.142,948.396,419.158C937.375,401.779,920.155,388.687,899.576,388.589C878.838,388.49,861.227,401.289,849.943,418.688C837.343,438.116,827.617,462.161,838.662,482.513C850.061,503.516,875.68,510.39,899.576,510.144" fill="rgba(255, 107, 53, 0.54)" class="triangle-float2"></path><path d="M739.997,542.674C762.458,541.82,777.184,522.184,788.758,502.916C800.836,482.81,812.905,459.704,802.449,438.708C791.147,416.012,765.278,403.078,739.997,405.002C717.277,406.731,703.015,427.108,692.094,447.107C681.773,466.008,674.712,487.633,684.362,506.885C694.953,528.013,716.38,543.572,739.997,542.674" fill="rgba(255, 107, 53, 0.54)" class="triangle-float3"></path></g><defs><mask id="SvgjsMask1011"><rect width="1440" height="560" fill="#ffffff"></rect></mask><style>
            @keyframes float1 {
                0%{transform: translate(0, 0)}
                50%{transform: translate(-10px, 0)}
                100%{transform: translate(0, 0)}
            }

            .triangle-float1 {
                animation: float1 5s infinite;
            }

            @keyframes float2 {
                0%{transform: translate(0, 0)}
                50%{transform: translate(-5px, -5px)}
                100%{transform: translate(0, 0)}
            }

            .triangle-float2 {
                animation: float2 4s infinite;
            }

            @keyframes float3 {
                0%{transform: translate(0, 0)}
                50%{transform: translate(0, -10px)}
                100%{transform: translate(0, 0)}
            }

            .triangle-float3 {
                animation: float3 6s infinite;
            }
        </style></defs></svg>