<svg xmlns="http://www.w3.org/2000/svg" version="1.1" xmlns:xlink="http://www.w3.org/1999/xlink" xmlns:svgjs="http://svgjs.com/svgjs" width="1440" height="560" preserveAspectRatio="none" viewBox="0 0 1440 560"><g mask="url(&quot;#SvgjsMask1013&quot;)" fill="none"><path d="M1588.63 438.83C1416.18 436.96 1279.48 256.47 925.61 248.43 571.73 240.39 444.98-50.19 262.58-57.45" stroke="rgba(255, 107, 53, 1)" stroke-width="2"></path><path d="M1457.74 187.85C1339.36 187.66 1223.59 117.85 989.43 117.85 755.28 117.85 759.36 188.61 521.13 187.85 282.89 187.09 184.83-50.5 52.82-57.81" stroke="rgba(255, 107, 53, 1)" stroke-width="2"></path><path d="M1614.84 229.08C1506.63 230.56 1420.13 361.86 1201.56 357.88 982.99 353.9 930.66-22.74 788.28-56.21" stroke="rgba(255, 107, 53, 1)" stroke-width="2"></path><path d="M1594.39 294.01C1475.51 293.82 1359.21 224.01 1124.04 224.01 888.86 224.01 901.08 297.88 653.69 294.01 406.3 290.14 332.45-61.14 183.34-83.5" stroke="rgba(255, 107, 53, 1)" stroke-width="2"></path><path d="M1511.6 105.08C1388.02 109.59 1290.14 307.54 1059.89 306.68 829.64 305.82 753.86-49.78 608.18-74.01" stroke="rgba(255, 107, 53, 1)" stroke-width="2"></path></g><defs><mask id="SvgjsMask1013"><rect width="1440" height="560" fill="#ffffff"></rect></mask></defs></svg>