<svg xmlns="http://www.w3.org/2000/svg" version="1.1" xmlns:xlink="http://www.w3.org/1999/xlink" xmlns:svgjs="http://svgjs.com/svgjs" width="1440" height="560" preserveAspectRatio="none" viewBox="0 0 1440 560"><g mask="url(&quot;#SvgjsMask1018&quot;)" fill="none"><path d="M140 105C104.81 105 66.67 116.2 66.67 140C66.67 170.37 106.83 213.33 140 213.33C168.33 213.33 189.68 172.12 189.68 140C189.68 117.96 166.32 105 140 105" stroke="rgba(26, 101, 158, 1)" stroke-width="2"></path><path d="M1120 253.95C1090 253.95 1062.43 254.88 1061.05 280C1057.87 337.91 1083.49 351.83 1110.87 420C1112.96 425.21 1114.56 425.24 1120 426.77C1189.12 446.14 1193.77 464.05 1260 461.79C1292.93 460.67 1318.33 447.37 1318.33 420C1318.33 374.62 1297.98 359.29 1260 316.3C1236.15 289.29 1228.68 295.15 1194.67 280C1158.68 263.97 1156.81 253.95 1120 253.95" stroke="rgba(0, 78, 137, 1)" stroke-width="2"></path><path d="M280 383.92C214.99 383.92 145.38 401.41 145.38 420C145.38 438.68 215.26 458.46 280 458.46C314.39 458.46 343.64 438.79 343.64 420C343.64 401.52 314.12 383.92 280 383.92" stroke="rgba(0, 78, 137, 1)" stroke-width="2"></path><path d="M700 383.48C680.79 383.48 660.47 400.53 660.47 420C660.47 442.13 680.93 466.67 700 466.67C718.19 466.67 735 442.28 735 420C735 400.68 718.06 383.48 700 383.48" stroke="rgba(0, 78, 137, 1)" stroke-width="2"></path><path d="M140 65.23C86.21 30.45 29.62 17.53 29.62 0C29.62 -15.09 84.81 0 140 0C210 0 210 0 280 0C335.26 0 337.32 -7.1 390.53 0C407.32 2.24 411.84 3.9 420 18.67C450.52 73.9 431.51 88.26 467.89 140C501.51 187.82 506.31 200.53 560 217.78C622.37 237.82 636.03 197.15 700 214.57C750.29 228.26 745.93 245.3 788.53 280C815.93 302.32 807.93 318.35 840 328.61C903.67 348.98 922.11 314.09 980 341.25C1019.5 359.78 1034.78 385.22 1034.78 420C1034.78 444.59 1002.11 434.88 980 460C940.48 504.88 955.54 528.56 911.52 560C885.54 578.56 875.76 560 840 560C770 560 770 560 700 560C630 560 630 560 560 560C550.87 560 548.39 565.91 541.74 560C478.39 503.69 480.27 498.31 420 435.56C413.04 428.31 415.73 425.3 407.27 420C345.73 381.44 344.05 383.17 280 347.84C217.14 313.17 161.27 327.9 153.46 280C144.33 223.98 249.93 200.56 246.13 140C243.2 93.17 194.47 100.45 140 65.23" stroke="rgba(255, 107, 53, 1)" stroke-width="2"></path><path d="M700 17.5C687.21 12.13 678.22 4.92 678.22 0C678.22 -3.83 689.11 0 700 0C770 0 770 0 840 0C910 0 910 0 980 0C1030.16 0 1044.68 -22.45 1080.33 0C1114.68 21.63 1084.22 62.3 1120 88.15C1174.06 127.21 1189.9 109.32 1260 129.82C1278.57 135.25 1297.33 131.78 1297.33 140C1297.33 149.6 1281.61 161.48 1260 165.45C1192.95 177.76 1186.64 181.49 1120 172.56C1091.64 168.76 1096.32 153.89 1070 140C1026.32 116.95 1026.99 113.42 980 98.69C911.99 77.36 908.7 87.8 840 67.88C768.7 47.2 768.1 46.07 700 17.5" stroke="rgba(0, 78, 137, 1)" stroke-width="2"></path><path d="M0 346.41C26.92 346.41 88.31 380.32 88.31 420C88.31 464.95 25.45 515.67 0 515.67C-18.7 515.67 0 467.84 0 420C0 383.21 -17.23 346.41 0 346.41" stroke="rgba(255, 107, 53, 1)" stroke-width="2"></path><path d="M700 345.43C660.78 345.43 619.29 380.25 619.29 420C619.29 465.17 661.06 515.28 700 515.28C737.14 515.28 771.46 465.48 771.46 420C771.46 380.56 736.86 345.43 700 345.43" stroke="rgba(26, 101, 158, 1)" stroke-width="2"></path><path d="M1391.25 420C1391.25 412.78 1392.21 408.37 1400 405C1466.58 376.24 1491.15 350.51 1540 355.74C1561.15 358.01 1540 387.87 1540 420C1540 457.69 1563.01 493.51 1540 495.38C1493.01 499.19 1468.04 465.83 1400 431.35C1393.67 428.14 1391.25 425.96 1391.25 420" stroke="rgba(255, 107, 53, 1)" stroke-width="2"></path><path d="M190.31 560C190.31 542.65 236.96 496.92 280 496.92C317.24 496.92 350.86 541.95 350.86 560C350.86 573.49 315.43 560 280 560C235.15 560 190.31 574.19 190.31 560" stroke="rgba(255, 107, 53, 1)" stroke-width="2"></path><path d="M1059.75 560C1059.75 536.27 1079.45 492.54 1120 483.23C1179.57 469.55 1195 488.44 1260 514.03C1292.5 526.83 1315 546.99 1315 560C1315 569.98 1287.5 560 1260 560C1190 560 1190 560 1120 560C1089.88 560 1059.75 574.65 1059.75 560" stroke="rgba(0, 78, 137, 1)" stroke-width="2"></path><path d="M140 25.45C116.88 25.45 96.92 6.84 96.92 0C96.92 -5.89 118.46 0 140 0C183.07 0 226.15 -6.23 226.15 0C226.15 6.5 181.5 25.45 140 25.45" stroke="rgba(0, 78, 137, 1)" stroke-width="2"></path><path d="M407.27 140C407.27 137.31 414.68 135.33 420 135.33C421.97 135.33 421.84 137.62 421.84 140C421.84 143.14 422.31 146.36 420 146.36C415.03 146.36 407.27 142.82 407.27 140" stroke="rgba(255, 107, 53, 1)" stroke-width="2"></path><path d="M840 14.85C819.63 10.15 800.8 3.84 800.8 0C800.8 -3.59 820.4 0 840 0C910 0 910 0 980 0C1001 0 1022 -8.6 1022 0C1022 12.06 1006.62 39.14 980 41.31C915.62 46.56 909.23 30.81 840 14.85" stroke="rgba(26, 101, 158, 1)" stroke-width="2"></path><path d="M220.77 280C220.77 239.87 248.26 183.75 280 183.75C313.69 183.75 351.63 241.28 351.63 280C351.63 305.28 315.22 311.75 280 311.75C249.79 311.75 220.77 303.87 220.77 280" stroke="rgba(26, 101, 158, 1)" stroke-width="2"></path><path d="M501.67 280C509.35 254.74 529.29 260.91 560 256.67C628.46 247.22 633.39 243.83 700 252.61C721.92 255.5 737.06 266.31 737.06 280C737.06 293.69 717.27 292.18 700 307.39C637.8 362.18 630.83 358.28 578.12 420C560.83 440.25 574.66 471.33 560 471.33C540.76 471.33 520.16 452.28 510.32 420C491 356.62 484.51 336.4 501.67 280" stroke="rgba(255, 107, 53, 1)" stroke-width="2"></path><path d="M0 391.28C10.5 391.28 34.46 404.51 34.46 420C34.46 437.54 9.93 457.33 0 457.33C-7.3 457.33 0 438.66 0 420C0 405.64 -6.73 391.28 0 391.28" stroke="rgba(26, 101, 158, 1)" stroke-width="2"></path><path d="M807.92 420C823.28 398.12 817.99 377.22 840 377.22C887.13 377.22 939.17 381.57 946.21 420C955.91 472.96 917.29 502.25 873.48 560C864.18 572.25 856.74 560 840 560C775.84 560 718.57 590.12 711.67 560C702.53 520.12 759.12 489.51 807.92 420" stroke="rgba(255, 107, 53, 1)" stroke-width="2"></path><path d="M1523.2 420C1523.2 416.31 1533.91 413.11 1540 413.11C1542.31 413.11 1540 416.56 1540 420C1540 424.04 1542.54 428.08 1540 428.08C1534.14 428.08 1523.2 423.79 1523.2 420" stroke="rgba(26, 101, 158, 1)" stroke-width="2"></path><path d="M245 560C245 553.23 263.21 535.38 280 535.38C294.53 535.38 307.65 552.95 307.65 560C307.65 565.26 293.83 560 280 560C262.5 560 245 565.54 245 560" stroke="rgba(26, 101, 158, 1)" stroke-width="2"></path><path d="M1104.05 560C1104.05 553.72 1108.23 539.68 1120 539.68C1168.71 539.68 1225 554.87 1225 560C1225 565.03 1172.5 560 1120 560C1112.03 560 1104.05 563.88 1104.05 560" stroke="rgba(26, 101, 158, 1)" stroke-width="2"></path></g><defs><mask id="SvgjsMask1018"><rect width="1440" height="560" fill="#ffffff"></rect></mask></defs></svg>