<svg xmlns="http://www.w3.org/2000/svg" version="1.1" xmlns:xlink="http://www.w3.org/1999/xlink" xmlns:svgjs="http://svgjs.com/svgjs" width="1440" height="560" preserveAspectRatio="none" viewBox="0 0 1440 560"><g mask="url(&quot;#SvgjsMask1077&quot;)" fill="none"><path d="M 0,171 C 57.6,139.8 172.8,11 288,15 C 403.2,19 460.8,180.8 576,191 C 691.2,201.2 748.8,66.8 864,66 C 979.2,65.2 1036.8,175 1152,187 C 1267.2,199 1382.4,138.2 1440,126L1440 560L0 560z" fill="rgba(241, 152, 84, 1)"></path><path d="M 0,536 C 96,495.6 288,332.2 480,334 C 672,335.8 768,532.8 960,545 C 1152,557.2 1344,425 1440,395L1440 560L0 560z" fill="rgba(247, 197, 159, 1)"></path></g><defs><mask id="SvgjsMask1077"><rect width="1440" height="560" fill="#ffffff"></rect></mask></defs></svg>